HIERARCHY
ROOT root
{
	OFFSET 0.000000 0.000000 0.000000
	CHANNELS 6 Xposition Yposition Zposition Zrotation Yrotation Xrotation
	JOINT lhip
	{
		OFFSET 0.058581 -0.082280 -0.017664
		CHANNELS 3 Zrotation Yrotation Xrotation
		JOINT lknee
		{
			OFFSET 0.043451 -0.386469 0.008037
			CHANNELS 3 Zrotation Yrotation Xrotation
			JOINT lankle
			{
				OFFSET -0.014790 -0.426874 -0.037428
				CHANNELS 3 Zrotation Yrotation Xrotation
				JOINT ltoe
				{
					OFFSET 0.041054 -0.060286 0.122042
					CHANNELS 3 Zrotation Yrotation Xrotation
					End Site
					{
						OFFSET 0.000000 0.000000 0.000000
					}
				}
			}
		}
	}
	JOINT rhip
	{
		OFFSET -0.060310 -0.090513 -0.013543
		CHANNELS 3 Zrotation Yrotation Xrotation
		JOINT rknee
		{
			OFFSET -0.043257 -0.383688 -0.004843
			CHANNELS 3 Zrotation Yrotation Xrotation
			JOINT rankle
			{
				OFFSET 0.019056 -0.420046 -0.034562
				CHANNELS 3 Zrotation Yrotation Xrotation
				JOINT rtoe
				{
					OFFSET -0.034840 -0.062106 0.130323
					CHANNELS 3 Zrotation Yrotation Xrotation
					End Site
					{
						OFFSET 0.000000 0.000000 0.000000
					}
				}
			}
		}
	}
	JOINT lowerback
	{
		OFFSET 0.004439 0.124404 -0.038385
		CHANNELS 3 Zrotation Yrotation Xrotation
		JOINT upperback
		{
			OFFSET 0.004488 0.137956 0.026820
			CHANNELS 3 Zrotation Yrotation Xrotation
			JOINT chest
			{
				OFFSET -0.002265 0.056032 0.002855
				CHANNELS 3 Zrotation Yrotation Xrotation
				JOINT lowerneck
				{
					OFFSET -0.013390 0.211636 -0.033468
					CHANNELS 3 Zrotation Yrotation Xrotation
					JOINT upperneck
					{
						OFFSET 0.010113 0.088937 0.050410
						CHANNELS 3 Zrotation Yrotation Xrotation
						End Site
						{
							OFFSET 0.000000 0.000000 0.000000
						}
					}
				}
				JOINT lclavicle
				{
					OFFSET 0.071702 0.114000 -0.018898
					CHANNELS 3 Zrotation Yrotation Xrotation
					JOINT lshoulder
					{
						OFFSET 0.122921 0.045205 -0.019046
						CHANNELS 3 Zrotation Yrotation Xrotation
						JOINT lelbow
						{
							OFFSET 0.255332 -0.015649 -0.022946
							CHANNELS 3 Zrotation Yrotation Xrotation
							JOINT lwrist
							{
								OFFSET 0.265709 0.012698 -0.007375
								CHANNELS 3 Zrotation Yrotation Xrotation
								End Site
								{
									OFFSET 0.000000 0.000000 0.000000
								}
							}
						}
					}
				}
				JOINT rclavicle
				{
					OFFSET -0.082954 0.112472 -0.023707
					CHANNELS 3 Zrotation Yrotation Xrotation
					JOINT rshoulder
					{
						OFFSET -0.113228 0.046853 -0.008472
						CHANNELS 3 Zrotation Yrotation Xrotation
						JOINT relbow
						{
							OFFSET -0.260127 -0.014369 -0.031269
							CHANNELS 3 Zrotation Yrotation Xrotation
							JOINT rwrist
							{
								OFFSET -0.269108 0.006794 -0.006027
								CHANNELS 3 Zrotation Yrotation Xrotation
								End Site
								{
									OFFSET 0.000000 0.000000 0.000000
								}
							}
						}
					}
				}
			}
		}
	}
}
MOTION
Frames: 10
Frame Time: 0.033333
-0.174483 0.265610 0.931237 97.008721 -2.068689 105.836070 6.567945 -0.863722 -47.534651 -7.440714 0.487321 23.173451 -5.398005 -2.781651 0.574801 0.000000 -0.000000 0.000000 -7.336456 -10.350157 -47.423968 -0.734688 -14.526479 42.492304 5.775096 -3.654132 -10.605868 0.000000 -0.000000 0.000000 9.614827 -2.561209 64.874157 -5.535856 7.160041 -0.132234 2.569789 5.359319 5.320890 -13.453926 -10.108413 2.940256 4.651405 -3.180495 1.113026 -17.282668 -19.482520 -5.398053 -52.086605 -10.324078 28.618905 -59.942471 -82.965082 83.901302 43.789176 -18.747875 -17.544134 3.122680 38.713780 -1.895424 -0.105459 26.281663 -24.703638 0.284670 12.843502 -27.250274 -32.516086 16.210977 9.776684 
-0.169449 0.275638 0.923046 96.928059 -2.942728 107.473409 5.549417 -1.019721 -50.444067 -8.063792 1.136384 25.343450 -3.985950 -2.667741 0.416037 0.000000 -0.000000 0.000000 -8.350141 -11.730841 -50.037841 -0.351700 -13.475652 44.608267 5.884577 -3.644378 -11.281573 0.000000 -0.000000 0.000000 10.361724 -3.233385 66.792594 -5.937985 7.579692 -0.497878 2.384772 4.883831 6.783028 -13.821886 -11.889087 0.346295 4.638079 -4.002955 0.811252 -16.300000 -18.522320 -6.933791 -51.997338 -10.199575 28.607962 -88.530938 -82.646012 114.271904 45.510284 -19.651230 -18.049752 0.257109 39.113522 -2.681041 -4.103680 24.491882 -28.297593 0.466984 11.994641 -29.612576 -34.087375 16.781187 9.127665 
-0.163148 0.284678 0.914580 96.948408 -3.834670 108.953901 4.915733 -1.320189 -53.072098 -8.808022 2.087442 27.453900 -3.080621 -2.804399 -0.162936 0.000000 -0.000000 0.000000 -9.370666 -13.204398 -52.237678 -0.180629 -12.873192 46.669177 6.214349 -3.133881 -12.065721 0.000000 -0.000000 0.000000 11.082320 -3.881644 68.390346 -6.270492 7.901820 -0.477656 2.242931 4.474892 7.711192 -14.373369 -13.618203 -1.137169 5.276325 -4.639542 -0.120931 -15.479097 -17.639899 -8.439033 -52.175995 -9.707992 28.576037 -108.650495 -81.131691 135.490688 46.369244 -19.854333 -18.827828 -2.576164 39.440644 -3.258842 -6.740837 22.231435 -30.919129 -0.060870 11.759880 -31.399395 -35.228446 17.174678 8.852880 
-0.157244 0.293276 0.907311 96.798777 -4.495578 110.183055 4.523607 -1.465100 -55.334502 -9.665644 3.044072 29.506712 -2.329093 -2.671250 -1.127012 0.000000 -0.000000 0.000000 -10.412833 -14.304478 -53.996187 0.344186 -12.438690 48.346839 6.545775 -2.869286 -12.832090 0.000000 -0.000000 0.000000 11.883518 -4.265597 69.752641 -6.402458 8.414553 -0.213342 2.145404 3.760582 8.791282 -14.238582 -14.890296 -3.330556 5.157241 -5.426336 -0.300950 -15.046889 -16.568916 -9.943367 -52.707859 -9.725806 28.969720 -119.276003 -79.456086 147.424424 47.817592 -20.284173 -19.444117 -4.718743 39.340484 -3.251076 -10.159734 20.308625 -33.225651 -0.087011 11.028826 -32.945164 -36.714661 17.694906 8.273364 
-0.150846 0.302122 0.899782 97.219583 -5.460271 111.158213 3.628262 -2.179903 -57.386636 -10.265627 3.663608 31.483904 -1.510440 -2.639288 -1.819265 0.000000 -0.000000 0.000000 -11.478302 -16.459537 -55.514002 0.865932 -12.054074 50.239557 6.939647 -2.366750 -13.553276 0.000000 -0.000000 0.000000 12.334828 -5.421629 70.896423 -6.457898 8.547261 -0.506926 1.913436 3.129809 10.090065 -14.245188 -15.835196 -5.561295 4.994892 -5.694744 0.048899 -14.442852 -15.038382 -11.722492 -53.709881 -9.476044 29.214186 -124.353336 -77.515162 154.356515 50.111559 -20.669339 -19.661505 -6.780353 39.111880 -3.647785 -12.693260 19.190210 -35.555049 -0.001771 10.138595 -34.110460 -37.470207 18.308287 8.542708 
-0.144407 0.307699 0.889963 96.465548 -5.620711 112.414912 4.000680 -1.605774 -59.793944 -11.233637 5.086049 33.920887 -0.583228 -2.428301 -3.086109 0.000000 -0.000000 0.000000 -12.141856 -16.819779 -57.571792 1.214236 -12.103262 52.190855 6.846441 -2.173395 -14.343117 0.000000 -0.000000 0.000000 12.577791 -5.151040 71.551711 -6.822435 8.489657 -0.791984 1.753242 2.621508 10.743159 -14.533410 -16.487896 -5.993655 5.292287 -5.585403 -0.407909 -13.866208 -13.888034 -12.640889 -54.077656 -8.357973 28.702383 -128.656252 -75.450827 160.224389 51.100502 -20.477648 -19.025762 -8.662473 39.483000 -4.152971 -13.243253 18.654009 -37.530297 -0.641908 9.349169 -35.023492 -37.408225 18.168996 8.666715 
-0.138552 0.314638 0.882440 96.649583 -5.969779 113.518994 3.867907 -1.851362 -62.112556 -11.523572 6.162516 36.257948 -0.025856 -2.756183 -4.035918 0.000000 -0.000000 0.000000 -12.766263 -18.056869 -59.001673 1.430641 -12.366014 53.747726 7.028371 -1.868779 -15.082976 0.000000 -0.000000 0.000000 13.159719 -5.131646 71.771265 -6.625157 8.568430 -1.437647 1.814374 2.465487 11.205232 -14.380118 -17.146921 -5.300990 5.162582 -5.653773 -0.965483 -13.721839 -13.725323 -12.452787 -54.743633 -8.050502 28.599689 -128.522693 -74.737776 162.004844 52.793858 -21.730500 -16.669751 -9.043073 39.201129 -4.178377 -13.854380 17.818989 -38.469925 -0.652040 8.971748 -35.855524 -38.306242 18.340894 8.584885 
-0.134262 0.320195 0.875188 97.245994 -5.630017 114.970332 4.667473 -2.025136 -65.020292 -11.943294 7.144257 38.770851 0.518798 -2.820111 -4.954000 0.000000 -0.000000 0.000000 -12.924703 -18.751401 -60.579697 1.766344 -13.135561 55.020636 6.988879 -2.138083 -15.673648 0.000000 -0.000000 0.000000 13.783790 -5.332880 70.830755 -6.296460 8.942570 -1.581848 1.746766 2.478776 11.505097 -14.519130 -17.572307 -4.445616 5.155200 -5.795387 -1.361545 -13.703704 -13.147150 -12.340403 -54.983968 -7.697611 28.395497 -126.915105 -73.930114 162.573153 54.291853 -22.653202 -13.771810 -8.854742 39.064082 -3.494698 -14.425709 17.400960 -39.488219 -0.885594 8.753086 -35.429890 -38.558732 18.191076 8.344594 
-0.129433 0.325175 0.870786 97.667695 -5.651510 115.836000 4.886867 -2.417420 -66.694591 -11.977844 7.911124 40.463522 1.084055 -2.958814 -5.861075 0.000000 -0.000000 0.000000 -13.370081 -19.411579 -61.318784 1.730387 -13.825103 56.003797 6.970217 -2.086009 -16.326425 0.000000 -0.000000 0.000000 14.153362 -5.360943 70.332164 -5.856869 9.241102 -1.315237 1.773738 2.483789 11.605527 -14.196575 -17.853488 -4.134169 4.821377 -6.249018 -1.470390 -13.828663 -13.076326 -12.005811 -54.967585 -7.832087 28.602923 -128.981131 -73.672040 164.464985 54.721849 -23.025326 -13.468276 -8.376492 38.782133 -3.009320 -15.292366 16.793911 -39.695879 -0.613073 8.615084 -35.849704 -39.400914 18.580455 8.780416 
-0.125389 0.329599 0.867398 98.023383 -5.699405 116.876138 5.197086 -2.675284 -68.274914 -12.303452 8.529103 41.581876 1.548646 -2.930525 -6.541880 0.000000 -0.000000 0.000000 -13.708219 -19.908905 -62.209844 1.774257 -14.293503 56.676854 7.158232 -2.189513 -16.761206 0.000000 -0.000000 0.000000 14.537894 -5.482973 69.850612 -5.662713 9.337010 -1.504440 1.686431 2.441658 11.870144 -14.055084 -18.192744 -4.324024 4.560377 -6.552110 -1.465703 -13.621231 -12.739807 -12.162044 -54.983574 -7.851055 28.765104 -129.125575 -73.172533 164.777785 55.200554 -22.778451 -13.637936 -8.347753 38.411986 -2.891179 -15.149188 16.811505 -39.543504 -1.264105 8.661271 -36.207172 -39.852742 18.397333 8.393683 
